<svg clip-rule="evenodd" fill-rule="evenodd" height="2048" image-rendering="optimizeQuality" shape-rendering="geometricPrecision" text-rendering="geometricPrecision" viewBox="0 0 2048 2048" width="2048" xmlns="http://www.w3.org/2000/svg"><g id="Layer_x0020_1"><path d="m1840 1024c0 217.101-85.506 423.514-238.996 577.003-153.489 153.49-359.902 238.996-577.003 238.996s-423.514-85.506-577.003-238.996c-153.49-153.489-238.996-359.902-238.996-577.003s85.506-423.514 238.996-577.003c153.489-153.49 359.902-238.996 577.003-238.996s423.514 85.506 577.003 238.996c153.49 153.489 238.996 359.902 238.996 577.003z" fill="#e0e0e0"/><path d="m1776 1024c0-207.665-84.1678-395.667-220.251-531.749-136.082-136.083-324.084-220.251-531.749-220.251s-395.667 84.1678-531.749 220.251c-136.083 136.082-220.251 324.084-220.251 531.749s84.1678 395.667 220.251 531.749c136.082 136.083 324.084 220.251 531.749 220.251s395.667-84.1678 531.749-220.251c136.083-136.082 220.251-324.084 220.251-531.749z" fill="#f8362d"/><path d="m1347.01 1241.63.641339-631.114h.0625985v-2.08229-19.5213l-19.1256 3.83386-.459449.0921261-481.979 82.2839-13.3134 2.27362v13.4764 478.379c-4.17402-.943702-8.41536-1.69843-12.7146-2.25827-11.824-1.54016-23.9516-1.63465-36.1725-.113386-39.6473 4.89331-74.3186 25.35-98.3056 54.4642-23.9906 29.1189-37.2992 66.9083-34.2272 106.468.185433 2.43543.407481 4.67953.659056 6.7252 4.5626 36.9626 22.9689 68.5595 49.6311 90.2257 26.6268 21.6378 61.4032 33.3071 98.7438 30.4488 2.45433-.187795 4.74804-.413386 6.86575-.67441 39.6071-4.94528 74.2666-25.4138 98.2501-54.5292 23.7874-28.878 37.0843-66.28 34.3181-105.503 0-169.08.0165354-193.605.0318898-218.192l.152362-205.586 300.505-55.9276v306.415c-4.17756-.938977-8.42127-1.68898-12.7205-2.24173-11.8441-1.52362-23.9764-1.59803-36.1866-.0720473-39.5859 4.89331-74.2607 25.3736-98.2772 54.4973-24.0118 29.1201-37.376 66.9095-34.3536 106.428.190158 2.53347.422835 4.88032.690945 7.03583 4.60512 36.8799 23.0055 68.3859 49.6052 89.9859 26.5725 21.5788 61.2485 33.2221 98.4343 30.417 2.5441-.191339 4.93819-.427559 7.16812-.705119 39.6355-4.94764 74.2819-25.3996 98.2725-54.4996 23.9882-29.0977 37.3264-66.867 34.3524-106.453-.0708662-.86693-.201969-1.88977-.394488-3.09213l-.154725-.883465z" fill="#fffffe"/></g><path d="m0 0h2048v2048h-2048z" fill="none"/></svg>