<?xml version="1.0" encoding="UTF-8"?>
<svg xmlns="http://www.w3.org/2000/svg" xmlns:xlink="http://www.w3.org/1999/xlink" version="1.1" width="512" height="512" x="0" y="0" viewBox="0 0 4000 4000" style="enable-background:new 0 0 512 512" xml:space="preserve" class="">
  <g>
    <path d="M1230 3750c308.779 0 560-251.221 560-560l-.41-1015.683L2910 1838.193v869.736c-82.715-48.262-177.529-77.929-280-77.929-308.779 0-560 251.221-560 560s251.221 560 560 560 560-251.221 560-560V1649.999c-.001-43.343-24.68-87.622-59.804-112.598-33.231-23.631-81.03-33.45-120.391-21.522l-1220.352 366.064-.136-407.148 315-93.857c74.102-22.012 116.348-100.01 94.267-174.112s-100.01-116.416-174.112-94.2l-313.496 93.379C1592.578 1239.774 1510 1349.834 1510 1473.632v1234.297c-82.715-48.262-177.529-77.929-280-77.929-308.779 0-560 251.221-560 560s251.221 560 560 560zm1400-280c-154.355 0-280-125.645-280-280s125.645-280 280-280 280 125.645 280 280-125.645 280-280 280zm-1400-560c154.355 0 280 125.645 280 280s-125.645 280-280 280-280-125.645-280-280 125.645-280 280-280z" fill="#ffffff" opacity="1" data-original="#000000" class=""/>
    <path d="M2770 1370c77.314 0 140-62.686 140-140V950h280c77.314 0 140-62.686 140-140s-62.686-140-140-140h-280V390c0-77.314-62.686-140-140-140s-140 62.686-140 140v280h-280c-77.314 0-140 62.686-140 140s62.686 140 140 140h280v280c0 77.314 62.686 140 140 140z" fill="#ffffff" opacity="1" data-original="#000000" class=""/>
  </g>
</svg>
