<?xml version="1.0" encoding="UTF-8"?>
<svg xmlns="http://www.w3.org/2000/svg" xmlns:xlink="http://www.w3.org/1999/xlink" version="1.1" width="512" height="512" x="0" y="0" viewBox="0 0 64 64" style="enable-background:new 0 0 512 512" xml:space="preserve" class="">
  <g>
    <path d="M54.266 11.516H9.734a4.459 4.459 0 0 0-4.453 4.453v32.063a4.459 4.459 0 0 0 4.453 4.453h44.531a4.459 4.459 0 0 0 4.453-4.453V15.969a4.456 4.456 0 0 0-4.452-4.453zm.89 36.515c0 .491-.4.891-.891.891H9.734a.892.892 0 0 1-.891-.891V15.969c0-.491.4-.891.891-.891h44.531c.491 0 .891.4.891.891z" fill="#ffffff" opacity="1" data-original="#000000" class=""/>
    <path d="M50.703 36.453H25.766a1.781 1.781 0 0 0 0 3.562h24.938a1.781 1.781 0 1 0-.001-3.562zM38.234 42.688H13.297a1.781 1.781 0 0 0 0 3.562h24.938a1.781 1.781 0 1 0-.001-3.562zM13.297 40.016h6.234a1.781 1.781 0 0 0 0-3.562h-6.234a1.781 1.781 0 0 0 0 3.562zM50.703 42.688h-6.234a1.781 1.781 0 0 0 0 3.562h6.234a1.781 1.781 0 0 0 0-3.562z" fill="#ffffff" opacity="1" data-original="#000000" class=""/>
  </g>
</svg>
