<?xml version="1.0" encoding="UTF-8"?>
<svg xmlns="http://www.w3.org/2000/svg" xmlns:xlink="http://www.w3.org/1999/xlink" version="1.1" width="512" height="512" x="0" y="0" viewBox="0 0 64 64" style="enable-background:new 0 0 512 512" xml:space="preserve">
  <g>
    <g fill="#000">
      <path d="M40 14a5 5 0 1 1 10 0 5 5 0 0 1-10 0z" fill="#ffffff" opacity="1" data-original="#000000"/>
      <path fill-rule="evenodd" d="M20.018 2C13.243 2 7.204 6.886 6.491 13.815c-.657 6.387-.654 11.948.005 18.356C7.209 39.104 13.249 44 20.03 44h23.924c6.742 0 12.765-4.84 13.514-11.734.266-2.454.433-4.782.498-7.076.04-.209.043-.42.016-.625.074-3.563-.094-7.065-.506-10.854C56.729 6.824 50.706 2 43.976 2zm33.976 20.014a81.66 81.66 0 0 0-.494-7.871C52.994 9.479 48.864 6 43.976 6H20.018c-4.918 0-9.064 3.522-9.548 8.224a93.45 93.45 0 0 0-.31 3.715c10.086-2.562 20.235.255 27.55 6.696 4.965-3.304 10.876-4.083 16.284-2.62z" clip-rule="evenodd" fill="#ffffff" opacity="1" data-original="#000000"/>
      <path d="M54 53a2 2 0 1 0 0-4H10a2 2 0 1 0 0 4zM34 60a2 2 0 0 1-2 2H10a2 2 0 1 1 0-4h22a2 2 0 0 1 2 2z" fill="#ffffff" opacity="1" data-original="#000000"/>
    </g>
  </g>
</svg>
