<?xml version="1.0" encoding="UTF-8"?>
<svg xmlns="http://www.w3.org/2000/svg" xmlns:xlink="http://www.w3.org/1999/xlink" version="1.1" width="512" height="512" x="0" y="0" viewBox="0 0 32 32" style="enable-background:new 0 0 512 512" xml:space="preserve" class="">
  <g>
    <path d="M9 3a3 3 0 0 0-3 3v6a3 3 0 0 0 3 3h11a3 3 0 0 0 3-3V6a3 3 0 0 0-3-3zM28 17H9a3 3 0 0 0-3 3v6a3 3 0 0 0 3 3h19a3 3 0 0 0 3-3v-6a3 3 0 0 0-3-3zM2 30a1 1 0 0 0 2 0V2a1 1 0 0 0-2 0z" fill="#ffffff" opacity="1" data-original="#000000" class=""/>
  </g>
</svg>
