<?xml version="1.0" encoding="UTF-8"?>
<svg xmlns="http://www.w3.org/2000/svg" xmlns:xlink="http://www.w3.org/1999/xlink" version="1.1" width="512" height="512" x="0" y="0" viewBox="0 0 32 32" style="enable-background:new 0 0 512 512" xml:space="preserve">
  <g>
    <g data-name="53-Resize">
      <path d="M24 7h-5a1 1 0 0 0 0 2h2.59l-5.3 5.3A3 3 0 0 0 15 14H5a3 3 0 0 0-3 3v10a3 3 0 0 0 3 3h10a3 3 0 0 0 3-3V17a2.9 2.9 0 0 0-.3-1.28l5.3-5.31V13a1 1 0 0 0 2 0V8a1.05 1.05 0 0 0-.29-.71A1 1 0 0 0 24 7zM3 12a1 1 0 0 0 1-1V9a1 1 0 0 0-2 0v2a1 1 0 0 0 1 1zM29 8a1 1 0 0 0-1 1v2a1 1 0 0 0 2 0V9a1 1 0 0 0-1-1zM29 20a1 1 0 0 0-1 1v2a1 1 0 0 0 2 0v-2a1 1 0 0 0-1-1zM29 14a1 1 0 0 0-1 1v2a1 1 0 0 0 2 0v-2a1 1 0 0 0-1-1zM21 4h2a1 1 0 0 0 0-2h-2a1 1 0 0 0 0 2zM9 4h2a1 1 0 0 0 0-2H9a1 1 0 0 0 0 2zM15 4h2a1 1 0 0 0 0-2h-2a1 1 0 0 0 0 2zM23 28h-2a1 1 0 0 0 0 2h2a1 1 0 0 0 0-2zM29 26a1 1 0 0 0-1 1 1 1 0 0 1-1 1 1 1 0 0 0 0 2 3 3 0 0 0 3-3 1 1 0 0 0-1-1zM27 4a1 1 0 0 1 1 1 1 1 0 0 0 2 0 3 3 0 0 0-3-3 1 1 0 0 0 0 2zM3 6a1 1 0 0 0 1-1 1 1 0 0 1 1-1 1 1 0 0 0 0-2 3 3 0 0 0-3 3 1 1 0 0 0 1 1z" fill="#ffffff" opacity="1" data-original="#000000"/>
    </g>
  </g>
</svg>
