<?xml version="1.0" encoding="UTF-8"?>
<svg xmlns="http://www.w3.org/2000/svg" xmlns:xlink="http://www.w3.org/1999/xlink" version="1.1" width="512" height="512" x="0" y="0" viewBox="0 0 682.667 682.667" style="enable-background:new 0 0 512 512" xml:space="preserve">
  <g>
    <defs>
      <clipPath id="a">
        <path d="M0 512h512V0H0Z" fill="#ffffff" opacity="1" data-original="#000000"/>
      </clipPath>
    </defs>
    <g clip-path="url(#a)" transform="matrix(1.33333 0 0 -1.33333 0 682.667)">
      <path d="m0 0 43.212-46.814c14.433-15.634 14.49-39.716.133-55.419l-230.61-252.23-128 128L-57.309 2.832C-40.625 17.661-15.14 16.402 0 0Z" transform="translate(443.265 458.822)" fill="none" stroke="#ffffff" stroke-width="30" stroke-linecap="round" stroke-linejoin="round" stroke-miterlimit="10" data-original="#000000" opacity="1"/>
      <path d="m0 0-73-72h97l24 24z" transform="translate(88 112.36)" fill="none" stroke="#ffffff" stroke-width="30" stroke-linecap="round" stroke-linejoin="round" stroke-miterlimit="10" data-original="#000000" opacity="1"/>
      <path d="M0 0c14.662 14.662 36.189 20.953 56.928 15.768 18.982-4.746 39.456.616 53.719 14.88L120 40-8 168l-9.353-9.352a56.57 56.57 0 0 1-14.879-53.72C-27.203 84.812-32.884 63.116-48 48c-.1-.1-1.36 1.36 48-48Z" transform="translate(136 64.36)" fill="none" stroke="#ffffff" stroke-width="30" stroke-linecap="round" stroke-linejoin="round" stroke-miterlimit="10" data-original="#000000" opacity="1"/>
      <path d="M0 0h144" transform="translate(272 40.36)" fill="none" stroke="#ffffff" stroke-width="30" stroke-linecap="round" stroke-linejoin="round" stroke-miterlimit="10" data-original="#000000" opacity="1"/>
    </g>
  </g>
</svg>
