<?xml version="1.0" encoding="UTF-8"?>
<svg xmlns="http://www.w3.org/2000/svg" xmlns:xlink="http://www.w3.org/1999/xlink" version="1.1" width="512" height="512" x="0" y="0" viewBox="0 0 100 100" style="enable-background:new 0 0 512 512" xml:space="preserve">
  <g>
    <path fill="#ffffff" fill-rule="evenodd" d="M9.5 6h81a4.5 4.5 0 1 1 0 9h-81a4.5 4.5 0 1 1 0-9zm45 20h36a4.5 4.5 0 1 1 0 9h-36a4.5 4.5 0 1 1 0-9zm0 20h36a4.5 4.5 0 1 1 0 9h-36a4.5 4.5 0 1 1 0-9zm0 20h36a4.5 4.5 0 1 1 0 9h-36a4.5 4.5 0 1 1 0-9zm-45 20h81a4.5 4.5 0 1 1 0 9h-81a4.5 4.5 0 1 1 0-9zm14.136-39.872-5.046-5.046a4.5 4.5 0 1 1 6.364-6.364l12.728 12.728A4.486 4.486 0 0 1 39 50.628c0 1.152-.44 2.303-1.318 3.182L24.954 66.538a4.5 4.5 0 1 1-6.364-6.364l5.046-5.046H9.5a4.5 4.5 0 0 1 0-9z" opacity="1" data-original="#000000"/>
  </g>
</svg>
