<?xml version="1.0" encoding="UTF-8"?>
<svg xmlns="http://www.w3.org/2000/svg" xmlns:xlink="http://www.w3.org/1999/xlink" version="1.1" width="512" height="512" x="0" y="0" viewBox="0 0 24 24" style="enable-background:new 0 0 512 512" xml:space="preserve" class="">
  <g>
    <path d="M15 7c-.6 0-1-.4-1-1s.4-1 1-1 1 .4 1 1-.4 1-1 1z" fill="#ffffff" opacity="1" data-original="#000000"/>
    <path d="M18 18H6c-2.2 0-4-1.8-4-4V6c0-2.2 1.8-4 4-4h12c2.2 0 4 1.8 4 4v8c0 2.2-1.8 4-4 4zM6 4c-1.1 0-2 .9-2 2v8c0 1.1.9 2 2 2h12c1.1 0 2-.9 2-2V6c0-1.1-.9-2-2-2z" fill="#ffffff" opacity="1" data-original="#000000"/>
    <path d="M14 14c-.3 0-.5-.1-.7-.3l-4-4c-.2-.2-.5-.4-.8-.4s-.6.2-.8.4l-4 4c-.4.4-1 .4-1.4 0s-.4-1 0-1.4l4-4C7.6 7 9.4 7 10.7 8.3l4 4c.4.4.4 1 0 1.4-.2.2-.4.3-.7.3z" fill="#ffffff" opacity="1" data-original="#000000"/>
    <path d="M21 14c-.3 0-.5-.1-.7-.3l-3-3c-.2-.2-.5-.4-.8-.4s-.6.2-.8.4l-2 2c-.4.4-1 .4-1.4 0s-.4-1 0-1.4l2-2c1.3-1.3 3.1-1.3 4.4 0l3 3c.4.4.4 1 0 1.4-.2.2-.4.3-.7.3zM8 22c-.6 0-1-.4-1-1s.4-1 1-1 1 .4 1 1-.4 1-1 1zM12 22c-.6 0-1-.4-1-1s.4-1 1-1 1 .4 1 1-.4 1-1 1zM16 22c-.6 0-1-.4-1-1s.4-1 1-1 1 .4 1 1-.4 1-1 1z" fill="#ffffff" opacity="1" data-original="#000000"/>
  </g>
</svg>
