<?xml version="1.0" encoding="UTF-8"?>
<svg xmlns="http://www.w3.org/2000/svg" xmlns:xlink="http://www.w3.org/1999/xlink" version="1.1" width="512" height="512" x="0" y="0" viewBox="0 0 32 32" style="enable-background:new 0 0 512 512" xml:space="preserve">
  <g>
    <g data-name="Layer 2">
      <path d="M21 6H11a2 2 0 0 0-2 2v16a2 2 0 0 0 2 2h10a2 2 0 0 0 2-2V8a2 2 0 0 0-2-2zm0 2v9.59l-1.29-1.3a1 1 0 0 0-1.42 0L17 17.59l-2.29-2.3a1 1 0 0 0-1.42 0L11 17.59V8zm0 16v-3.59zM5 6H3a1 1 0 0 0-1 1v18a1 1 0 0 0 1 1h2a2 2 0 0 0 2-2V8a2 2 0 0 0-2-2zM29 6h-2a2 2 0 0 0-2 2v16a2 2 0 0 0 2 2h2a1 1 0 0 0 1-1V7a1 1 0 0 0-1-1z" fill="#ffffff" opacity="1" data-original="#000000"/>
      <circle cx="17.5" cy="12.5" r="1.5" fill="#ffffff" opacity="1" data-original="#000000"/>
    </g>
  </g>
</svg>
