<svg viewBox="0 0 32 32" xmlns="http://www.w3.org/2000/svg"><g id="Layer_2" data-name="Layer 2"><path d="m21 6h-10a2 2 0 0 0 -2 2v16a2 2 0 0 0 2 2h10a2 2 0 0 0 2-2v-16a2 2 0 0 0 -2-2zm0 2v9.59l-1.29-1.3a1 1 0 0 0 -1.42 0l-1.29 1.3-2.29-2.3a1 1 0 0 0 -1.42 0l-2.29 2.3v-9.59zm0 16v-3.59z"/><path d="m5 6h-2a1 1 0 0 0 -1 1v18a1 1 0 0 0 1 1h2a2 2 0 0 0 2-2v-16a2 2 0 0 0 -2-2z"/><path d="m29 6h-2a2 2 0 0 0 -2 2v16a2 2 0 0 0 2 2h2a1 1 0 0 0 1-1v-18a1 1 0 0 0 -1-1z"/><circle cx="17.5" cy="12.5" r="1.5"/></g></svg>