<svg id="Layer_1" enable-background="new 0 0 24 24" height="512" viewBox="0 0 24 24" width="512" xmlns="http://www.w3.org/2000/svg"><g><path d="m15 7c-.6 0-1-.4-1-1s.4-1 1-1c.6 0 1 .4 1 1s-.4 1-1 1z"/></g><g><path d="m18 18h-12c-2.2 0-4-1.8-4-4v-8c0-2.2 1.8-4 4-4h12c2.2 0 4 1.8 4 4v8c0 2.2-1.8 4-4 4zm-12-14c-1.1 0-2 .9-2 2v8c0 1.1.9 2 2 2h12c1.1 0 2-.9 2-2v-8c0-1.1-.9-2-2-2z"/></g><g><path d="m14 14c-.3 0-.5-.1-.7-.3l-4-4c-.2-.2-.5-.4-.8-.4s-.6.2-.8.4l-4 4c-.4.4-1 .4-1.4 0s-.4-1 0-1.4l4-4c1.3-1.3 3.1-1.3 4.4 0l4 4c.4.4.4 1 0 1.4-.2.2-.4.3-.7.3z"/></g><g><path d="m21 14c-.3 0-.5-.1-.7-.3l-3-3c-.2-.2-.5-.4-.8-.4s-.6.2-.8.4l-2 2c-.4.4-1 .4-1.4 0s-.4-1 0-1.4l2-2c1.3-1.3 3.1-1.3 4.4 0l3 3c.4.4.4 1 0 1.4-.2.2-.4.3-.7.3z"/></g><g><path d="m8 22c-.6 0-1-.4-1-1s.4-1 1-1c.6 0 1 .4 1 1s-.4 1-1 1z"/></g><g><path d="m12 22c-.6 0-1-.4-1-1s.4-1 1-1c.6 0 1 .4 1 1s-.4 1-1 1z"/></g><g><path d="m16 22c-.6 0-1-.4-1-1s.4-1 1-1c.6 0 1 .4 1 1s-.4 1-1 1z"/></g></svg>