<svg height="100" viewBox="0 0 100 100" width="100" xmlns="http://www.w3.org/2000/svg"><g id="Full---Rounded---Dcrease-Indent" fill="none" fill-rule="evenodd"><path id="Combined-Shape" d="m9.5 6h81c2.4852814 0 4.5 2.01471863 4.5 4.5 0 2.4852814-2.0147186 4.5-4.5 4.5h-81c-2.48528137 0-4.5-2.0147186-4.5-4.5 0-2.48528137 2.01471863-4.5 4.5-4.5zm45 20h36c2.4852814 0 4.5 2.0147186 4.5 4.5s-2.0147186 4.5-4.5 4.5h-36c-2.4852814 0-4.5-2.0147186-4.5-4.5s2.0147186-4.5 4.5-4.5zm0 20h36c2.4852814 0 4.5 2.0147186 4.5 4.5s-2.0147186 4.5-4.5 4.5h-36c-2.4852814 0-4.5-2.0147186-4.5-4.5s2.0147186-4.5 4.5-4.5zm0 20h36c2.4852814 0 4.5 2.0147186 4.5 4.5s-2.0147186 4.5-4.5 4.5h-36c-2.4852814 0-4.5-2.0147186-4.5-4.5s2.0147186-4.5 4.5-4.5zm-45 20h81c2.4852814 0 4.5 2.0147186 4.5 4.5s-2.0147186 4.5-4.5 4.5h-81c-2.48528137 0-4.5-2.0147186-4.5-4.5s2.01471863-4.5 4.5-4.5zm10.863961-39.8720779h14.136039c2.4852814 0 4.5 2.0147186 4.5 4.5 0 2.4852813-2.0147186 4.5-4.5 4.5h-14.136039l5.0459416 5.0459415c1.7573593 1.7573593 1.7573593 4.6066017 0 6.363961-1.7573593 1.7573594-4.6066017 1.7573594-6.3639611 0l-12.72792202-12.727922c-.87867965-.8786797-1.31801948-2.0303301-1.31801948-3.1819805 0-1.1516505.43933983-2.3033009 1.31801948-3.1819806l12.72792202-12.727922c1.7573594-1.7573593 4.6066018-1.7573593 6.3639611 0s1.7573593 4.6066017 0 6.363961z" fill="#000"/></g></svg>