<svg fill="none" height="512" viewBox="0 0 24 24" width="512" xmlns="http://www.w3.org/2000/svg"><g clip-rule="evenodd" fill="rgb(0,0,0)" fill-rule="evenodd"><path d="m9.44631 3.25c-1.13282-.00002-2.05857-.00004-2.78942.09822-.76395.10271-1.42629.32499-1.95498.85369-.5287.52869-.75098 1.19103-.85369 1.95498-.09826.73086-.09824 1.65659-.09822 2.78942v5.30959c-.14844.004-.28616.0108-.41265.0223-.32918.0298-.65513.0959-.96235.2732-.34204.1975-.62608.4816-.82355.8236-.17737.3072-.24343.6332-.27327.9624-.02821.3112-.02819.6906-.02818 1.1303v.0645c-.00001.4398-.00003.8192.02818 1.1305.02984.3291.0959.6551.27327.9623.19747.342.48151.6261.82355.8236.30722.1773.63317.2434.96235.2732.31127.0282.69058.0282 1.13033.0282h.06455c.43975 0 .81915 0 1.13042-.0282.32919-.0298.65514-.0959.96235-.2732.34205-.1975.62608-.4816.82356-.8236.17737-.3072.24343-.6332.27326-.9623.02821-.3113.0282-.6907.02818-1.1305v-.0644c.00002-.4398.00003-.8192-.02818-1.1304-.02983-.3292-.09589-.6552-.27326-.9624-.19748-.342-.48151-.6261-.82356-.8236-.30721-.1773-.63316-.2434-.96235-.2732-.12648-.0115-.2642-.0183-.41265-.0223v-5.2559c0-1.19971.0016-2.02405.08484-2.64324.08035-.59762.22419-.89065.42773-1.09419s.49657-.34738 1.09419-.42773c.61919-.08324 1.44353-.08484 2.64324-.08484h5c1.1997 0 2.0241.0016 2.6432.08484.5977.08035.8907.22419 1.0942.42773.2036.20354.3474.49657.4278 1.09419.0832.61919.0848 1.44353.0848 2.64324v1.1893l-.7197-.71963c-.2929-.29289-.7677-.29289-1.0606 0-.2929.2929-.2929.76773 0 1.06063l2 2c.2929.2929.7677.2929 1.0606 0l2-2c.2929-.2929.2929-.76773 0-1.06063-.2929-.29289-.7677-.29289-1.0606 0l-.7197.71963v-1.24298c0-1.13284 0-2.05857-.0982-2.78943-.1027-.76395-.325-1.42629-.8537-1.95498-.5287-.5287-1.191-.75098-1.955-.85369-.7308-.09826-1.6566-.09824-2.7894-.09822zm-4.94631 12.5c-.48111 0-.7918.0007-1.02725.0221-.22515.0204-.30688.0548-.34775.0784-.11401.0658-.20869.1605-.27452.2745-.02359.0409-.05801.1226-.07842.3477-.02134.2355-.02206.5462-.02206 1.0273s.00072.7918.02206 1.0273c.02041.2251.05483.3068.07842.3477.06583.114.16051.2087.27452.2745.04087.0236.1226.058.34775.0784.23545.0214.54614.0221 1.02725.0221s.7918-.0007 1.02726-.0221c.22514-.0204.30688-.0548.34774-.0784.11402-.0658.2087-.1605.27452-.2745.02359-.0409.05802-.1226.07842-.3477.02134-.2355.02206-.5462.02206-1.0273s-.00072-.7918-.02206-1.0273c-.0204-.2251-.05483-.3068-.07842-.3477-.06582-.114-.1605-.2087-.27452-.2745-.04086-.0236-.1226-.058-.34774-.0784-.23546-.0214-.54615-.0221-1.02726-.0221z"/><path d="m11.9678 14.25c-.4398 0-.8192 0-1.1304.0282-.3292.0298-.6552.0959-.9624.2732-.34204.1975-.62608.4816-.82355.8236-.17737.3072-.24343.6332-.27327.9624-.02821.3112-.02819.6906-.02818 1.1303v.0645c-.00001.4398-.00003.8192.02818 1.1305.02984.3291.0959.6551.27327.9623.19747.342.48151.6261.82355.8236.3072.1773.6332.2434.9624.2732.3112.0282.6905.0282 1.1303.0282h.0645c.4398 0 .8192 0 1.1305-.0282.3291-.0298.6551-.0959.9623-.2732.342-.1975.6261-.4816.8236-.8236.1773-.3072.2434-.6332.2732-.9623.0282-.3113.0282-.6906.0282-1.1304v-.0645c0-.4398 0-.8192-.0282-1.1304-.0298-.3292-.0959-.6552-.2732-.9624-.1975-.342-.4816-.6261-.8236-.8236-.3072-.1773-.6332-.2434-.9623-.2732-.3113-.0282-.6907-.0282-1.1304-.0282zm-1.3428 1.6005c.0409-.0236.1226-.058.3477-.0784.2355-.0214.5462-.0221 1.0273-.0221s.7918.0007 1.0273.0221c.2251.0204.3068.0548.3477.0784.114.0658.2087.1605.2745.2745.0236.0409.058.1226.0784.3477.0214.2355.0221.5462.0221 1.0273s-.0007.7918-.0221 1.0273c-.0204.2251-.0548.3068-.0784.3477-.0658.114-.1605.2087-.2745.2745-.0409.0236-.1226.058-.3477.0784-.2355.0214-.5462.0221-1.0273.0221s-.7918-.0007-1.0273-.0221c-.2251-.0204-.3068-.0548-.3477-.0784-.114-.0658-.2087-.1605-.2745-.2745-.0236-.0409-.058-.1226-.0784-.3477-.0214-.2355-.0221-.5462-.0221-1.0273s.0007-.7918.0221-1.0273c.0204-.2251.0548-.3068.0784-.3477.0658-.114.1605-.2087.2745-.2745z"/><path d="m19.4678 14.25h.0644c.4398 0 .8192 0 1.1305.0282.3291.0298.6551.0959.9623.2732.342.1975.6261.4816.8236.8236.1773.3072.2434.6332.2732.9624.0282.3112.0282.6905.0282 1.1303v.0645c0 .4398 0 .8192-.0282 1.1305-.0298.3291-.0959.6551-.2732.9623-.1975.342-.4816.6261-.8236.8236-.3072.1773-.6332.2434-.9623.2732-.3113.0282-.6906.0282-1.1304.0282h-.0645c-.4398 0-.8192 0-1.1304-.0282-.3292-.0298-.6552-.0959-.9624-.2732-.342-.1975-.6261-.4816-.8236-.8236-.1773-.3072-.2434-.6332-.2732-.9623-.0282-.3113-.0282-.6907-.0282-1.1304v-.0645c0-.4398 0-.8192.0282-1.1304.0298-.3292.0959-.6552.2732-.9624.1975-.342.4816-.6261.8236-.8236.3072-.1773.6332-.2434.9624-.2732.3112-.0282.6906-.0282 1.1304-.0282zm-.9951 1.5221c-.2251.0204-.3068.0548-.3477.0784-.114.0658-.2087.1605-.2745.2745-.0236.0409-.058.1226-.0784.3477-.0214.2355-.0221.5462-.0221 1.0273s.0007.7918.0221 1.0273c.0204.2251.0548.3068.0784.3477.0658.114.1605.2087.2745.2745.0409.0236.1226.058.3477.0784.2355.0214.5462.0221 1.0273.0221s.7918-.0007 1.0273-.0221c.2251-.0204.3068-.0548.3477-.0784.114-.0658.2087-.1605.2745-.2745.0236-.0409.058-.1226.0784-.3477.0214-.2355.0221-.5462.0221-1.0273s-.0007-.7918-.0221-1.0273c-.0204-.2251-.0548-.3068-.0784-.3477-.0658-.114-.1605-.2087-.2745-.2745-.0409-.0236-.1226-.058-.3477-.0784-.2355-.0214-.5462-.0221-1.0273-.0221s-.7918.0007-1.0273.0221z"/></g></svg>