<svg height="512" viewBox="0 0 32 32" width="512" xmlns="http://www.w3.org/2000/svg"><g id="_53-Resize" data-name="53-Resize"><path d="m24 7h-5a1 1 0 0 0 0 2h2.59l-5.3 5.3a3 3 0 0 0 -1.29-.3h-10a3 3 0 0 0 -3 3v10a3 3 0 0 0 3 3h10a3 3 0 0 0 3-3v-10a2.9 2.9 0 0 0 -.3-1.28l5.3-5.31v2.59a1 1 0 0 0 2 0v-5a1.05 1.05 0 0 0 -.29-.71 1 1 0 0 0 -.71-.29z"/><path d="m3 12a1 1 0 0 0 1-1v-2a1 1 0 0 0 -2 0v2a1 1 0 0 0 1 1z"/><path d="m29 8a1 1 0 0 0 -1 1v2a1 1 0 0 0 2 0v-2a1 1 0 0 0 -1-1z"/><path d="m29 20a1 1 0 0 0 -1 1v2a1 1 0 0 0 2 0v-2a1 1 0 0 0 -1-1z"/><path d="m29 14a1 1 0 0 0 -1 1v2a1 1 0 0 0 2 0v-2a1 1 0 0 0 -1-1z"/><path d="m21 4h2a1 1 0 0 0 0-2h-2a1 1 0 0 0 0 2z"/><path d="m9 4h2a1 1 0 0 0 0-2h-2a1 1 0 0 0 0 2z"/><path d="m15 4h2a1 1 0 0 0 0-2h-2a1 1 0 0 0 0 2z"/><path d="m23 28h-2a1 1 0 0 0 0 2h2a1 1 0 0 0 0-2z"/><path d="m29 26a1 1 0 0 0 -1 1 1 1 0 0 1 -1 1 1 1 0 0 0 0 2 3 3 0 0 0 3-3 1 1 0 0 0 -1-1z"/><path d="m27 4a1 1 0 0 1 1 1 1 1 0 0 0 2 0 3 3 0 0 0 -3-3 1 1 0 0 0 0 2z"/><path d="m3 6a1 1 0 0 0 1-1 1 1 0 0 1 1-1 1 1 0 0 0 0-2 3 3 0 0 0 -3 3 1 1 0 0 0 1 1z"/></g></svg>