<svg fill="none" height="64" viewBox="0 0 64 64" width="64" xmlns="http://www.w3.org/2000/svg"><g fill="rgb(0,0,0)"><path d="m40 14c0-2.7614 2.2386-5 5-5s5 2.2386 5 5-2.2386 5-5 5-5-2.2386-5-5z"/><path clip-rule="evenodd" d="m20.0182 2c-6.7747 0-12.81439 4.88589-13.52708 11.8151-.65691 6.3868-.65433 11.9478.0048 18.3555.71319 6.9333 6.75318 11.8294 13.53548 11.8294h23.924c6.742 0 12.7651-4.8404 13.5134-11.7338.2665-2.4544.4327-4.7822.4986-7.0759.0387-.2092.0429-.42.0155-.625.0744-3.5637-.0943-7.0652-.5059-10.8543-.7481-6.887-6.7712-11.711-13.5011-11.711zm33.9761 20.0144c-.0318-2.5605-.1965-5.1337-.4939-7.8715-.5066-4.66353-4.636-8.1429-9.5245-8.1429h-23.9577c-4.9179 0-9.0645 3.52235-9.5481 8.2244-.1305 1.2686-.2338 2.5017-.3099 3.7142 10.0854-2.5615 20.2348.2552 27.5492 6.6961 4.9652-3.3038 10.8762-4.0827 16.2849-2.6203z" fill-rule="evenodd"/><path d="m54 53c1.1046 0 2-.8954 2-2s-.8954-2-2-2h-44c-1.10457 0-2 .8954-2 2s.89543 2 2 2z"/><path d="m34 60c0 1.1046-.8954 2-2 2h-22c-1.10457 0-2-.8954-2-2s.89543-2 2-2h22c1.1046 0 2 .8954 2 2z"/></g></svg>