<svg id="SUBTITLE" enable-background="new 0 0 64 64" height="512" viewBox="0 0 64 64" width="512" xmlns="http://www.w3.org/2000/svg"><path d="m54.266 11.516h-44.532c-2.455 0-4.453 1.998-4.453 4.453v32.063c0 2.455 1.998 4.453 4.453 4.453h44.531c2.455 0 4.453-1.998 4.453-4.453v-32.063c.001-2.456-1.997-4.453-4.452-4.453zm.89 36.515c0 .491-.4.891-.891.891h-44.531c-.491 0-.891-.4-.891-.891v-32.062c0-.491.4-.891.891-.891h44.531c.491 0 .891.4.891.891z"/><path d="m50.703 36.453h-24.937c-.984 0-1.781.798-1.781 1.781s.798 1.781 1.781 1.781h24.938c.984 0 1.781-.798 1.781-1.781s-.798-1.781-1.782-1.781z"/><path d="m38.234 42.688h-24.937c-.984 0-1.781.798-1.781 1.781s.798 1.781 1.781 1.781h24.938c.984 0 1.781-.798 1.781-1.781s-.798-1.781-1.782-1.781z"/><path d="m13.297 40.016h6.234c.984 0 1.781-.798 1.781-1.781s-.798-1.781-1.781-1.781h-6.234c-.984 0-1.781.798-1.781 1.781s.797 1.781 1.781 1.781z"/><path d="m50.703 42.688h-6.234c-.984 0-1.781.798-1.781 1.781s.798 1.781 1.781 1.781h6.234c.984 0 1.781-.798 1.781-1.781s-.797-1.781-1.781-1.781z"/></svg>