<svg id="&#x421;&#x43B;&#x43E;&#x439;_1" enable-background="new 0 0 4000 4000" viewBox="0 0 4000 4000" xmlns="http://www.w3.org/2000/svg"><g fill="rgb(0,0,0)"><path d="m1230 3750c308.779 0 560-251.221 560-560l-.41-1015.683 1120.41-336.124v869.736c-82.715-48.262-177.529-77.929-280-77.929-308.779 0-560 251.221-560 560s251.221 560 560 560 560-251.221 560-560c0 0 0-1540 0-1540.001-.001-43.343-24.68-87.622-59.804-112.598-33.231-23.631-81.03-33.45-120.391-21.522l-1220.352 366.064-.136-407.148 315-93.857c74.102-22.012 116.348-100.01 94.267-174.112s-100.01-116.416-174.112-94.2l-313.496 93.379c-118.398 33.769-200.976 143.829-200.976 267.627v1234.297c-82.715-48.262-177.529-77.929-280-77.929-308.779 0-560 251.221-560 560s251.221 560 560 560zm1400-280c-154.355 0-280-125.645-280-280s125.645-280 280-280 280 125.645 280 280-125.645 280-280 280zm-1400-560c154.355 0 280 125.645 280 280s-125.645 280-280 280-280-125.645-280-280 125.645-280 280-280z"/><path d="m2770 1370c77.314 0 140-62.686 140-140v-280h280c77.314 0 140-62.686 140-140s-62.686-140-140-140h-280v-280c0-77.314-62.686-140-140-140s-140 62.686-140 140v280h-280c-77.314 0-140 62.686-140 140s62.686 140 140 140h280v280c0 77.314 62.686 140 140 140z"/></g></svg>